<svg width="40" height="40" viewBox="0 0 40 40" fill="none" xmlns="http://www.w3.org/2000/svg">
<path opacity="0.15" fill-rule="evenodd" clip-rule="evenodd" d="M3 1C1.89543 1 1 1.89543 1 3V37C1 38.1046 1.89543 39 3 39H37C38.1046 39 39 38.1046 39 37V3C39 1.89543 38.1046 1 37 1H3ZM36 9H4V37H36V9Z" fill="url(#paint0_linear)"/>
<path d="M37.6172 0.375H2.38281C1.06903 0.375 0 1.44403 0 2.75781V38.2422C0 39.556 1.06903 40.625 2.38281 40.625H37.6172C38.931 40.625 40 39.556 40 38.2422V2.75781C40 1.44403 38.931 0.375 37.6172 0.375ZM38.4375 38.2422C38.4375 38.6945 38.0695 39.0625 37.6172 39.0625H2.38281C1.93054 39.0625 1.5625 38.6945 1.5625 38.2422V2.75781C1.5625 2.30554 1.93054 1.9375 2.38281 1.9375H37.6172C38.0695 1.9375 38.4375 2.30554 38.4375 2.75781V38.2422Z" fill="url(#paint1_linear)"/>
<path d="M14.9219 6.79156H35.0781C35.5096 6.79156 35.8594 6.44183 35.8594 6.01031C35.8594 5.5791 35.5096 5.22906 35.0781 5.22906H14.9219C14.4904 5.22906 14.1406 5.5791 14.1406 6.01031C14.1406 6.44183 14.4904 6.79156 14.9219 6.79156Z" fill="url(#paint2_linear)"/>
<circle cx="12" cy="20" r="3" fill="url(#paint3_linear)" />
<circle cx="28" cy="20" r="3" fill="url(#paint3_linear)" />
<circle cx="20" cy="30" r="3" fill="url(#paint3_linear)" />
<line x1="12" y1="20" x2="20" y2="30" stroke="url(#paint3_linear)" stroke-width="1.5"/>
<line x1="28" y1="20" x2="20" y2="30" stroke="url(#paint3_linear)" stroke-width="1.5"/>
<defs>
<linearGradient id="paint0_linear" x1="3.15333" y1="1" x2="26.6886" y2="35.0542" gradientUnits="userSpaceOnUse">
<stop offset="0.259336" stop-color="#FFDB6E"/>
<stop offset="1" stop-color="#FFBC5E"/>
</linearGradient>
<linearGradient id="paint1_linear" x1="2.26667" y1="0.375001" x2="27.8327" y2="36.511" gradientUnits="userSpaceOnUse">
<stop offset="0.259336" stop-color="#FFDB6E"/>
<stop offset="1" stop-color="#FFBC5E"/>
</linearGradient>
<linearGradient id="paint2_linear" x1="15.3714" y1="4.22906" x2="15.5472" y2="6.9288" gradientUnits="userSpaceOnUse">
<stop offset="0.259336" stop-color="#FFDB6E"/>
<stop offset="1" stop-color="#FFBC5E"/>
</linearGradient>
<linearGradient id="paint3_linear" x1="10" y1="10" x2="30" y2="30" gradientUnits="userSpaceOnUse">
<stop offset="0.259336" stop-color="#FFDB6E"/>
<stop offset="1" stop-color="#FFBC5E"/>
</linearGradient>
</defs>
</svg>
